<svg xmlns="http://www.w3.org/2000/svg" width="800" height="500" viewBox="0 0 800 500" style="background-color: #ffffff; font-family: system-ui, -apple-system, sans-serif;">
<text x="400.0" y="35" text-anchor="middle" font-size="16" font-weight="bold" fill="#222222">Distribution of Reconciliation Discrepancy (Reconciled CER vs GT Target) [N=1182]</text>
<line x1="70" y1="440" x2="760" y2="440" stroke="#444444" stroke-width="2"/>
<line x1="70" y1="70" x2="70" y2="440" stroke="#444444" stroke-width="2"/>
<rect x="70.0" y="70.0" width="26.6" height="370.0" fill="#ff7f0e" opacity="0.85" stroke="#111111" stroke-width="0.5"/>
<text x="83.8" y="66.0" text-anchor="middle" font-size="10" fill="#333333">1066</text>
<rect x="97.6" y="440.0" width="26.6" height="0.0" fill="#ff7f0e" opacity="0.85" stroke="#111111" stroke-width="0.5"/>
<rect x="125.2" y="440.0" width="26.6" height="0.0" fill="#ff7f0e" opacity="0.85" stroke="#111111" stroke-width="0.5"/>
<rect x="152.8" y="440.0" width="26.6" height="0.0" fill="#ff7f0e" opacity="0.85" stroke="#111111" stroke-width="0.5"/>
<rect x="180.4" y="440.0" width="26.6" height="0.0" fill="#ff7f0e" opacity="0.85" stroke="#111111" stroke-width="0.5"/>
<rect x="208.0" y="439.0" width="26.6" height="1.0" fill="#ff7f0e" opacity="0.85" stroke="#111111" stroke-width="0.5"/>
<text x="221.8" y="435.0" text-anchor="middle" font-size="10" fill="#333333">3</text>
<rect x="235.6" y="434.4" width="26.6" height="5.6" fill="#ff7f0e" opacity="0.85" stroke="#111111" stroke-width="0.5"/>
<text x="249.4" y="430.4" text-anchor="middle" font-size="10" fill="#333333">16</text>
<rect x="263.2" y="435.5" width="26.6" height="4.5" fill="#ff7f0e" opacity="0.85" stroke="#111111" stroke-width="0.5"/>
<text x="277.0" y="431.5" text-anchor="middle" font-size="10" fill="#333333">13</text>
<rect x="290.8" y="434.1" width="26.6" height="5.9" fill="#ff7f0e" opacity="0.85" stroke="#111111" stroke-width="0.5"/>
<text x="304.6" y="430.1" text-anchor="middle" font-size="10" fill="#333333">17</text>
<rect x="318.4" y="435.1" width="26.6" height="4.9" fill="#ff7f0e" opacity="0.85" stroke="#111111" stroke-width="0.5"/>
<text x="332.2" y="431.1" text-anchor="middle" font-size="10" fill="#333333">14</text>
<rect x="346.0" y="437.2" width="26.6" height="2.8" fill="#ff7f0e" opacity="0.85" stroke="#111111" stroke-width="0.5"/>
<text x="359.8" y="433.2" text-anchor="middle" font-size="10" fill="#333333">8</text>
<rect x="373.6" y="437.9" width="26.6" height="2.1" fill="#ff7f0e" opacity="0.85" stroke="#111111" stroke-width="0.5"/>
<text x="387.4" y="433.9" text-anchor="middle" font-size="10" fill="#333333">6</text>
<rect x="401.2" y="435.5" width="26.6" height="4.5" fill="#ff7f0e" opacity="0.85" stroke="#111111" stroke-width="0.5"/>
<text x="415.0" y="431.5" text-anchor="middle" font-size="10" fill="#333333">13</text>
<rect x="428.8" y="439.0" width="26.6" height="1.0" fill="#ff7f0e" opacity="0.85" stroke="#111111" stroke-width="0.5"/>
<text x="442.6" y="435.0" text-anchor="middle" font-size="10" fill="#333333">3</text>
<rect x="456.4" y="437.9" width="26.6" height="2.1" fill="#ff7f0e" opacity="0.85" stroke="#111111" stroke-width="0.5"/>
<text x="470.2" y="433.9" text-anchor="middle" font-size="10" fill="#333333">6</text>
<rect x="484.0" y="439.3" width="26.6" height="0.7" fill="#ff7f0e" opacity="0.85" stroke="#111111" stroke-width="0.5"/>
<text x="497.8" y="435.3" text-anchor="middle" font-size="10" fill="#333333">2</text>
<rect x="511.6" y="439.3" width="26.6" height="0.7" fill="#ff7f0e" opacity="0.85" stroke="#111111" stroke-width="0.5"/>
<text x="525.4" y="435.3" text-anchor="middle" font-size="10" fill="#333333">2</text>
<rect x="539.2" y="439.3" width="26.6" height="0.7" fill="#ff7f0e" opacity="0.85" stroke="#111111" stroke-width="0.5"/>
<text x="553.0" y="435.3" text-anchor="middle" font-size="10" fill="#333333">2</text>
<rect x="566.8" y="439.3" width="26.6" height="0.7" fill="#ff7f0e" opacity="0.85" stroke="#111111" stroke-width="0.5"/>
<text x="580.6" y="435.3" text-anchor="middle" font-size="10" fill="#333333">2</text>
<rect x="594.4" y="439.0" width="26.6" height="1.0" fill="#ff7f0e" opacity="0.85" stroke="#111111" stroke-width="0.5"/>
<text x="608.2" y="435.0" text-anchor="middle" font-size="10" fill="#333333">3</text>
<rect x="622.0" y="440.0" width="26.6" height="0.0" fill="#ff7f0e" opacity="0.85" stroke="#111111" stroke-width="0.5"/>
<rect x="649.6" y="439.3" width="26.6" height="0.7" fill="#ff7f0e" opacity="0.85" stroke="#111111" stroke-width="0.5"/>
<text x="663.4" y="435.3" text-anchor="middle" font-size="10" fill="#333333">2</text>
<rect x="677.2" y="439.3" width="26.6" height="0.7" fill="#ff7f0e" opacity="0.85" stroke="#111111" stroke-width="0.5"/>
<text x="691.0" y="435.3" text-anchor="middle" font-size="10" fill="#333333">2</text>
<rect x="704.8" y="440.0" width="26.6" height="0.0" fill="#ff7f0e" opacity="0.85" stroke="#111111" stroke-width="0.5"/>
<rect x="732.4" y="439.3" width="26.6" height="0.7" fill="#ff7f0e" opacity="0.85" stroke="#111111" stroke-width="0.5"/>
<text x="746.2" y="435.3" text-anchor="middle" font-size="10" fill="#333333">2</text>
<line x1="70.0" y1="70" x2="70.0" y2="440" stroke="#d62728" stroke-width="2" stroke-dasharray="4,4"/>
<text x="70.0" y="60" text-anchor="middle" font-size="11" fill="#d62728" font-weight="bold">Zero (0.0)</text>
<text x="70" y="460" text-anchor="middle" font-size="11" fill="#444444">0.000</text>
<text x="760" y="460" text-anchor="middle" font-size="11" fill="#444444">0.074</text>
<text x="400.0" y="485" text-anchor="middle" font-size="13" font-weight="500" fill="#333333">CER Discrepancy (Positive = Syllabary Alignment Constraints Differ from GT Target)</text>
<text x="60" y="440" text-anchor="end" font-size="11" fill="#444444">0</text>
<text x="60" y="80" text-anchor="end" font-size="11" fill="#444444">1066</text>
<text x="20" y="250.0" text-anchor="middle" font-size="13" font-weight="500" fill="#333333" transform="rotate(-90 20 250.0)">Frequency (Count)</text>
</svg>